<svg width="45" height="40" viewBox="0 0 45 40" fill="none" xmlns="http://www.w3.org/2000/svg">
<path d="M44.5 0H0.5V40H44.5V0Z" fill="#FFDE2B"/>
<path d="M32.24 23.57C31.27 23.57 30.48 22.78 30.48 21.81C30.48 20.84 31.27 20.05 32.24 20.05C33.21 20.05 34 20.84 34 21.81C34 22.78 33.21 23.57 32.24 23.57ZM12.76 23.57C11.79 23.57 11 22.78 11 21.81C11 20.84 11.79 20.05 12.76 20.05C13.73 20.05 14.52 20.84 14.52 21.81C14.52 22.78 13.73 23.57 12.76 23.57ZM32.87 12.95L36.39 6.84999C36.59 6.49999 36.47 6.04999 36.12 5.84999C35.77 5.64999 35.32 5.76999 35.12 6.11999L31.55 12.3C28.82 11.06 25.76 10.36 22.49 10.36C19.22 10.36 16.16 11.05 13.43 12.3L9.85999 6.11999C9.65999 5.76999 9.20999 5.64999 8.85999 5.84999C8.50999 6.04999 8.39 6.49999 8.59 6.84999L12.11 12.95C6.05999 16.24 1.92001 22.36 1.32001 29.6H43.65C43.06 22.36 38.92 16.24 32.87 12.95Z" fill="black"/>
</svg>
