<svg width="33" height="33" viewBox="0 0 33 33" fill="none" xmlns="http://www.w3.org/2000/svg">
<path d="M32.5653 10.1767C32.5653 9.78991 32.5653 9.40321 32.5653 9.00631C32.5653 8.68071 32.5551 8.35501 32.5551 8.01921C32.545 7.30681 32.4839 6.58431 32.3719 5.88211C32.2498 5.16974 32.0259 4.48791 31.7003 3.84677C31.0388 2.55434 29.9906 1.51632 28.7083 0.85484C28.0672 0.52918 27.3854 0.30529 26.673 0.18318C25.9708 0.0712301 25.2483 0 24.5359 0C24.1899 0 23.8643 0 23.5386 0C23.1519 0 22.7652 0 22.3683 0H10.1868C9.78994 0 9.40322 0 9.01651 0C8.69085 0 8.3652 0.01017 8.02937 0.01017C7.31701 0.02035 6.59446 0.0814101 5.89227 0.19335C5.17991 0.31547 4.49807 0.53936 3.85695 0.86501C2.57469 1.5265 1.52649 2.57469 0.875183 3.86713C0.54953 4.50826 0.325653 5.19009 0.203522 5.90246C0.0915837 6.60461 0.0203393 7.32721 0.0101623 8.03961C0.0101623 8.36521 0 8.69091 0 9.01651C0 9.40321 0 9.78991 0 10.1868V23.5997C0 23.905 0.0101623 24.2204 0.0101623 24.5257C0.0203403 25.2381 0.0814051 25.9505 0.193344 26.6628C0.315475 27.3752 0.539352 28.057 0.865005 28.6982C1.52649 29.9906 2.57469 31.0286 3.85695 31.6901C4.49808 32.0158 5.17991 32.2397 5.89227 32.3618C6.59446 32.4737 7.31701 32.545 8.02937 32.5551C8.35502 32.5653 8.68067 32.5653 9.01651 32.5653C9.40322 32.5653 9.78994 32.5653 10.1868 32.5653H22.3785C22.7652 32.5653 23.1519 32.5653 23.5488 32.5653C23.8744 32.5653 24.2001 32.5551 24.5359 32.5551C25.2483 32.545 25.9708 32.4839 26.673 32.3618C27.3854 32.2397 28.0672 32.0158 28.7083 31.6901C29.9906 31.0286 31.0388 29.9906 31.6901 28.6982C32.0158 28.057 32.2396 27.3752 32.3618 26.6628C32.4737 25.9607 32.5449 25.2381 32.5449 24.5257C32.5551 24.2001 32.5551 23.8744 32.5551 23.5386C32.5551 23.1519 32.5551 22.7652 32.5551 22.3683L32.5653 10.1767ZM10.0342 10.5634C10.4718 10.0545 11.0926 9.72891 11.7642 9.66781C11.8151 10.3497 11.5912 11.0213 11.1536 11.5505C10.7262 12.0797 10.0851 12.385 9.40322 12.3748C9.36251 11.7031 9.58641 11.0518 10.0342 10.5634ZM13.4027 19.9462C12.9142 20.6688 12.4053 21.371 11.6014 21.3913C10.8178 21.4015 10.5634 20.9334 9.66781 20.9334C8.77227 20.9334 8.48733 21.371 7.74443 21.4015C6.97101 21.432 6.37059 20.6383 5.88211 19.9157C4.87462 18.4605 4.11136 15.8043 5.14938 14.0133C5.63786 13.1279 6.56393 12.5682 7.57142 12.5376C8.33468 12.5275 9.03686 13.0465 9.50499 13.0465C9.97312 13.0465 10.7873 12.4359 11.754 12.4969C12.6089 12.5275 13.4027 12.9651 13.9013 13.6672C13.1279 14.1455 12.6394 14.9902 12.6292 15.9061C12.6394 16.9441 13.25 17.8702 14.1964 18.2874C14.0234 18.8777 13.7487 19.4374 13.4027 19.9462ZM19.4883 14.3898H17.9109V18.9998C17.9109 19.7122 18.2264 20.0378 18.9184 20.0378C19.1118 20.0378 19.2949 20.0175 19.4883 19.9971V21.2997C19.183 21.3506 18.8675 21.371 18.552 21.371C16.9238 21.371 16.2928 20.7502 16.2928 19.1626V14.3898H15.0818V13.0974H16.2826V11.1333H17.9109V13.0974H19.4883V14.3898ZM25.004 21.2997H23.274L20.3635 13.0872H22.0833L24.1288 19.6918H24.1696L26.2151 13.0872H27.9044L25.004 21.2997Z" fill="black"/>
</svg>
