<svg width="59" height="40" viewBox="0 0 59 40" fill="none" xmlns="http://www.w3.org/2000/svg">
<path d="M58.5 0H0.5V40H58.5V0Z" fill="#FFDE2B"/>
<path d="M3.71002 25.95C3.40002 25.95 3.24002 25.79 3.24002 25.48V15.88H1.50003C1.19003 15.88 1.03003 15.72 1.03003 15.41V14.82C1.03003 14.66 1.07005 14.55 1.14005 14.47C1.21005 14.39 1.35002 14.34 1.55002 14.31L3.24002 14.1V12.18C3.24002 9.56999 4.49002 8.25999 6.99002 8.25999C7.58002 8.25999 8.21003 8.34999 8.87003 8.51999C9.04003 8.56999 9.16004 8.63999 9.23004 8.72999C9.30004 8.81999 9.34003 8.98999 9.34003 9.21999V9.82999C9.34003 10.13 9.22002 10.28 8.99002 10.28C8.85002 10.28 8.65005 10.26 8.39005 10.21C8.13004 10.16 7.84004 10.14 7.51004 10.14C6.79004 10.14 6.29003 10.28 6.00003 10.55C5.71003 10.82 5.57004 11.27 5.57004 11.9V14.06H8.74002C9.05002 14.06 9.21002 14.22 9.21002 14.53V15.42C9.21002 15.73 9.05002 15.89 8.74002 15.89H5.57004V25.49C5.57004 25.8 5.41004 25.96 5.10004 25.96L3.71002 25.95Z" fill="black"/>
<path d="M12.37 11.95C11.92 11.95 11.56 11.82 11.3 11.56C11.04 11.3 10.91 10.96 10.91 10.54C10.91 10.12 11.04 9.77999 11.3 9.51999C11.56 9.25999 11.91 9.12999 12.37 9.12999C12.82 9.12999 13.18 9.25999 13.44 9.51999C13.7 9.77999 13.83 10.12 13.83 10.54C13.83 10.96 13.7 11.3 13.44 11.56C13.18 11.82 12.83 11.95 12.37 11.95ZM11.67 25.96C11.36 25.96 11.2 25.8 11.2 25.49V14.53C11.2 14.22 11.36 14.06 11.67 14.06H13.05C13.36 14.06 13.52 14.22 13.52 14.53V25.49C13.52 25.8 13.36 25.96 13.05 25.96H11.67Z" fill="black"/>
<path d="M17.05 25.95C16.74 25.95 16.58 25.79 16.58 25.48V14.53C16.58 14.22 16.74 14.06 17.05 14.06H18.08C18.24 14.06 18.36 14.09 18.44 14.15C18.53 14.21 18.58 14.33 18.62 14.5L18.78 15.81C19.2 15.36 19.6 15 19.98 14.73C20.36 14.46 20.74 14.27 21.14 14.14C21.54 14.01 21.97 13.95 22.42 13.95C22.61 13.95 22.8 13.96 22.98 13.97C23.25 14 23.38 14.14 23.38 14.39V15.66C23.38 15.94 23.24 16.08 22.96 16.08C22.82 16.08 22.68 16.07 22.55 16.06C22.42 16.04 22.27 16.04 22.12 16.04C20.87 16.04 19.8 16.42 18.91 17.17V25.48C18.91 25.79 18.75 25.95 18.44 25.95H17.05Z" fill="black"/>
<path d="M29.6501 26.31C27.7301 26.31 26.2701 25.78 25.2901 24.71C24.3001 23.65 23.8101 22.07 23.8101 19.99C23.8101 18 24.3001 16.46 25.2901 15.36C26.2801 14.26 27.6501 13.71 29.4201 13.71C30.9101 13.71 32.0501 14.13 32.8501 14.97C33.6501 15.81 34.05 16.99 34.05 18.52C34.05 19.02 34.0101 19.53 33.9301 20.05C33.9001 20.24 33.8501 20.36 33.7801 20.43C33.7101 20.49 33.6001 20.52 33.4401 20.52H26.0701C26.1001 21.87 26.4301 22.86 27.0701 23.5C27.7001 24.14 28.6901 24.46 30.0101 24.46C30.4801 24.46 30.93 24.43 31.36 24.37C31.79 24.31 32.3301 24.17 32.9901 23.97C33.1001 23.94 33.1901 23.91 33.2701 23.89C33.35 23.87 33.4201 23.85 33.4801 23.85C33.6801 23.85 33.7901 23.99 33.7901 24.27V24.93C33.7901 25.13 33.7601 25.28 33.7001 25.36C33.6401 25.45 33.5 25.54 33.3 25.63C32.83 25.83 32.2701 26 31.6201 26.12C30.9601 26.24 30.3001 26.31 29.6501 26.31ZM31.9001 18.96C31.9201 18.83 31.9201 18.63 31.9201 18.35C31.9201 17.4 31.7001 16.68 31.2501 16.19C30.8001 15.71 30.1501 15.46 29.2901 15.46C28.3001 15.46 27.5401 15.75 26.9901 16.34C26.4401 16.93 26.13 17.8 26.05 18.96H31.9001Z" fill="black"/>
<path d="M42.76 26.12C40.54 26.12 39.43 25.01 39.43 22.79V15.89H37.74C37.43 15.89 37.27 15.73 37.27 15.42V14.83C37.27 14.67 37.31 14.56 37.38 14.48C37.45 14.4 37.59 14.35 37.79 14.32L39.5 14.11L39.81 11.2C39.84 10.89 40.01 10.73 40.3 10.73H41.29C41.6 10.73 41.76 10.89 41.76 11.2V14.06H44.81C45.12 14.06 45.28 14.22 45.28 14.53V15.42C45.28 15.73 45.12 15.89 44.81 15.89H41.76V22.67C41.76 23.25 41.89 23.66 42.15 23.89C42.41 24.12 42.85 24.24 43.48 24.24C43.78 24.24 44.14 24.2 44.58 24.12C44.81 24.07 44.97 24.05 45.05 24.05C45.18 24.05 45.26 24.09 45.31 24.16C45.36 24.23 45.38 24.34 45.38 24.5V25.13C45.38 25.33 45.35 25.49 45.29 25.59C45.23 25.69 45.1 25.77 44.91 25.84C44.28 26.02 43.57 26.12 42.76 26.12Z" fill="black"/>
<path d="M51.6801 25.95C51.4601 25.95 51.3001 25.92 51.2001 25.86C51.1001 25.8 50.9901 25.62 50.8801 25.32L46.7301 14.9C46.7001 14.81 46.6601 14.71 46.6201 14.62C46.5801 14.53 46.5601 14.44 46.5601 14.36C46.5601 14.16 46.6801 14.05 46.9101 14.05H48.2901C48.5201 14.05 48.6901 14.08 48.7801 14.14C48.8701 14.2 48.9801 14.38 49.0901 14.68L52.3 23.83L55.5101 14.68C55.6201 14.38 55.7201 14.2 55.8201 14.14C55.9101 14.08 56.0801 14.05 56.3101 14.05H57.6001C57.8301 14.05 57.9501 14.15 57.9501 14.36C57.9501 14.44 57.9301 14.52 57.8901 14.62C57.8501 14.71 57.8201 14.81 57.7801 14.9L53.6501 25.32C53.5401 25.62 53.43 25.8 53.33 25.86C53.23 25.92 53.0701 25.95 52.8501 25.95H51.6801Z" fill="black"/>
<path d="M47.16 33.38C42.28 36.98 35.2 38.9 29.11 38.9C20.57 38.9 12.88 35.74 7.06003 30.49C6.60003 30.08 7.01003 29.51 7.56003 29.83C13.84 33.48 21.6 35.68 29.62 35.68C35.03 35.68 40.97 34.56 46.45 32.24C47.27 31.89 47.97 32.78 47.16 33.38Z" fill="black"/>
<path d="M49.19 31.06C48.57 30.26 45.06 30.68 43.49 30.87C43.01 30.93 42.94 30.51 43.37 30.21C46.16 28.25 50.74 28.81 51.27 29.47C51.81 30.13 51.1301 34.72 48.5101 36.91C48.1101 37.25 47.72 37.07 47.9 36.62C48.5 35.16 49.81 31.86 49.19 31.06Z" fill="black"/>
</svg>
