<svg width="81" height="40" viewBox="0 0 81 40" fill="none" xmlns="http://www.w3.org/2000/svg">
<path d="M80.5 0H0.5V40H80.5V0Z" fill="#FFDE2B"/>
<path fill-rule="evenodd" clip-rule="evenodd" d="M8.59 26.25C4.87 26.25 1.75 23.2 1.75 19.45C1.75 15.7 4.87 12.65 8.59 12.65C10.64 12.65 12.11 13.45 13.21 14.52L11.9 15.84C11.1 15.09 10.05 14.51 8.57999 14.51C5.85999 14.51 3.73999 16.72 3.73999 19.45C3.73999 22.19 5.85999 24.39 8.57999 24.39C10.34 24.39 11.34 23.68 11.99 23.04C12.52 22.51 12.86 21.74 12.99 20.7H8.57999V18.83H14.78C14.85 19.16 14.87 19.56 14.87 19.98C14.87 21.37 14.49 23.09 13.27 24.33C12.11 25.6 10.6 26.25 8.59 26.25ZM64.79 25.98V15.45H68.11V13.97H59.93V15.45H63.27V25.98H64.79ZM73.3 26H74.9L79.25 13.99H77.55L74.16 23.74H74.09L70.83 13.99H69.13L73.3 26ZM20.2 26.25C22.56 26.25 24.48 24.4 24.48 21.88C24.48 19.34 22.56 17.51 20.2 17.51C17.84 17.51 15.92 19.34 15.92 21.88C15.92 24.39 17.84 26.25 20.2 26.25ZM20.2 19.23C21.51 19.23 22.61 20.31 22.61 21.88C22.61 23.43 21.49 24.53 20.2 24.53C18.89 24.53 17.79 23.43 17.79 21.88C17.79 20.31 18.91 19.23 20.2 19.23ZM34.07 21.88C34.07 24.4 32.15 26.25 29.79 26.25C27.43 26.25 25.51 24.39 25.51 21.88C25.51 19.34 27.43 17.51 29.79 17.51C32.15 17.49 34.07 19.34 34.07 21.88ZM32.2 21.88C32.2 20.31 31.09 19.23 29.79 19.23C28.5 19.23 27.38 20.31 27.38 21.88C27.38 23.43 28.49 24.53 29.79 24.53C31.08 24.53 32.2 23.43 32.2 21.88ZM43.43 25.63V17.77H41.63V18.48H41.56C41.12 17.97 40.31 17.51 39.28 17.51C37.12 17.51 35.13 19.43 35.13 21.9C35.13 24.35 37.11 26.25 39.28 26.25C40.31 26.25 41.13 25.79 41.56 25.26H41.63V25.88C41.63 27.56 40.74 28.46 39.31 28.46C38.13 28.46 37.41 27.62 37.12 26.91L35.45 27.6C35.92 28.75 37.19 30.18 39.29 30.18C41.54 30.18 43.43 28.87 43.43 25.63ZM39.42 19.23C40.73 19.23 41.74 20.36 41.74 21.9C41.74 23.42 40.72 24.53 39.42 24.53C38.11 24.53 37.01 23.41 37.01 21.9C37.01 20.36 38.1 19.23 39.42 19.23ZM46.76 13.12V25.99H44.86V13.12H46.76ZM55.76 24.31L54.27 23.32C53.76 24.05 53.11 24.53 52.15 24.53C51.19 24.53 50.48 24.07 50.05 23.2L55.85 20.79L55.65 20.3C55.29 19.33 54.18 17.52 51.93 17.52C49.7 17.52 47.9 19.29 47.9 21.89C47.9 24.34 49.68 26.26 52.14 26.26C54.13 26.25 55.29 25.03 55.76 24.31ZM53.58 20.13L49.7 21.76C49.66 20.06 51.01 19.2 51.97 19.2C52.73 19.19 53.36 19.58 53.58 20.13Z" fill="black"/>
</svg>
