<svg width="73" height="34" fill="none" xmlns="http://www.w3.org/2000/svg" role="img" aria-label="iOS"><path fill-rule="evenodd" clip-rule="evenodd" d="M12.029 2.912c1.758-2.316 4.2-2.327 4.2-2.327s.364 2.178-1.382 4.275c-1.864 2.24-3.982 1.873-3.982 1.873s-.398-1.761 1.164-3.82zm-.941 5.347c.904 0 2.58-1.243 4.765-1.243 3.76 0 5.238 2.675 5.238 2.675s-2.892 1.478-2.892 5.066c0 4.048 3.602 5.443 3.602 5.443s-2.518 7.088-5.92 7.088c-1.562 0-2.777-1.053-4.423-1.053-1.678 0-3.343 1.093-4.427 1.093C3.925 27.328 0 20.603 0 15.198 0 9.88 3.322 7.09 6.437 7.09c2.026 0 3.598 1.169 4.65 1.169z" fill="#000" fill-opacity="1"></path><path d="M31.4 8.953c.506 0 .916-.41.916-.916s-.41-.93-.916-.93a.93.93 0 0 0-.93.93c0 .506.41.916.93.916zM30.867 27h1.053V12.275h-1.053V27zm14.11-20.057c-5.4 0-8.764 3.91-8.764 10.186 0 6.289 3.322 10.2 8.764 10.2 5.441 0 8.777-3.911 8.777-10.2 0-6.276-3.35-10.186-8.777-10.186zm0 1.012c4.689 0 7.683 3.582 7.683 9.174 0 5.578-2.994 9.187-7.683 9.187-4.704 0-7.67-3.609-7.67-9.187 0-5.592 2.98-9.174 7.67-9.174zM57.09 21.9c.191 3.172 3.185 5.428 7.123 5.428 4.088 0 6.877-2.31 6.877-5.523 0-2.639-1.71-4.28-5.783-5.264l-1.791-.438c-3.405-.82-4.8-1.955-4.8-3.91 0-2.365 2.23-4.252 5.346-4.252 3.09 0 5.305 1.737 5.565 3.952h1.08c-.205-2.776-2.898-4.95-6.617-4.95-3.787 0-6.48 2.297-6.48 5.278 0 2.502 1.585 3.95 5.468 4.894l1.9.465c3.473.848 5.004 2.242 5.004 4.307 0 2.502-2.365 4.443-5.7 4.443-3.282 0-5.907-1.873-6.112-4.43h-1.08z" fill="#000" fill-opacity="1"></path></svg>