<?xml version="1.0" encoding="utf-8"?>
<!-- Generator: Adobe Illustrator 25.0.0, SVG Export Plug-In . SVG Version: 6.00 Build 0)  -->
<svg version="1.1" id="Layer_1" xmlns="http://www.w3.org/2000/svg" xmlns:xlink="http://www.w3.org/1999/xlink" x="0px" y="0px"
	 width="123" height="40" viewBox="0 0 123 40" style="enable-background:new 0 0 123 40;" xml:space="preserve">
<style type="text/css">
	.st0{clip-path:url(#SVGID_2_);}
	.st1{fill:#FFDE2B;}
</style>
<g>
	<defs>
		<rect id="SVGID_1_" width="123" height="40"/>
	</defs>
	<clipPath id="SVGID_2_">
		<use xlink:href="#SVGID_1_"  style="overflow:visible;"/>
	</clipPath>
	<g class="st0">
		<path class="st1" d="M123,0H0v40h123V0z"/>
		<path d="M120.9759979,24.9528008c0-0.2081013,0.0820007-0.4004002,0.2280045-0.5484009
			c0.1449966-0.1466007,0.3409958-0.2266998,0.5499954-0.2266998c0.2050018,0,0.3990021,0.0800991,0.5490036,0.2266998
			c0.1449966,0.1480007,0.2249985,0.3402996,0.2249985,0.5484009c0,0.4284992-0.3470001,0.7759991-0.7740021,0.7759991
			c-0.2089996,0-0.4049988-0.0809002-0.5499954-0.2266998C121.0579987,25.3549995,120.9759979,25.1602001,120.9759979,24.9528008z
			 M121.7539978,25.8848991c0.2480011,0,0.4830017-0.095499,0.6560059-0.2721996
			c0.1759949-0.175499,0.2759933-0.410799,0.2759933-0.6598988c0-0.2520008-0.0999985-0.4834003-0.2759933-0.6589012
			c-0.1730042-0.175499-0.4080048-0.2722988-0.6560059-0.2722988c-0.5169983,0-0.9349976,0.416399-0.9349976,0.9312
			c0,0.2490997,0.0960007,0.4843998,0.2720032,0.6598988C121.2689972,25.7894001,121.5019989,25.8848991,121.7539978,25.8848991z"/>
		<path d="M122.0049973,24.7187996c0,0.0577011-0.0139999,0.0964012-0.0459976,0.1179008S121.8820038,24.8694,121.8249969,24.8694
			h-0.2899933v-0.2938004h0.3049927c0.0430069,0,0.0780029,0.0056,0.102005,0.017601
			C121.9830017,24.6147003,122.0049973,24.6555996,122.0049973,24.7187996z M122.211998,25.3868008
			c-0.0139999-0.0056-0.0250015-0.0206013-0.0279999-0.0456009c-0.0059967-0.0158997-0.0089951-0.0433998-0.0089951-0.0790997
			L122.1689987,25.1292c-0.0019989-0.0641003-0.0159988-0.1105995-0.0369949-0.1394005
			c-0.0160065-0.0184994-0.0390015-0.0352993-0.0630035-0.0506992c0.0309982-0.0207005,0.060997-0.0447998,0.0790024-0.074501
			c0.0270004-0.0429993,0.0389938-0.0966988,0.0389938-0.1590996c0-0.1243-0.0499954-0.2089996-0.1519928-0.2546005
			c-0.052002-0.0258999-0.1190033-0.0369987-0.1970062-0.0369987h-0.4609985h-0.0209961v0.0231991v0.9936008v0.0219002h0.0209961
			h0.137001h0.0210037v-0.0219002v-0.4034996h0.284996c0.0500031,0,0.0889969,0.0047989,0.1110001,0.0167999
			c0.0339966,0.0184994,0.0540009,0.0537987,0.0599976,0.1104984l0.0060043,0.1665001
			c0.0019989,0.0391006,0.0049973,0.0658016,0.0069962,0.0809002c0.0050049,0.015501,0.0070038,0.028801,0.0149994,0.0395012
			l0.0070038,0.0112h0.012001h0.1629944h0.026001v-0.0219002v-0.023201v-0.0133991L122.211998,25.3868008z"/>
		<path d="M45.6202011,14.0201998l-5.0459023-0.0016994c-0.018898,0-0.0360985,0.0167999-0.0360985,0.0339994v11.7987995
			c0,0.0188999,0.0172005,0.0344009,0.0360985,0.0344009h2.0440025c0.0201988,0,0.0360985-0.015501,0.0360985-0.0344009V15.3360004
			c0-0.0090008,0.0069008-0.0185003,0.0138016-0.0185003l2.3372993-0.0039005c0.8525009,0,1.3195992,0.8559999,1.3195992,2.418601
			c0,1.5562-0.4670982,2.417799-1.3195992,2.417799l-1.4056015-0.0025997c-0.020298,0-0.0374985,0.0167999-0.0374985,0.0361004
			v1.2229004c0,0.0205994,0.0172005,0.0390987,0.0374985,0.0390987h2.0203018c0.7048988,0,1.4021988-0.3289986,1.9096985-0.8993988
			c0.5974998-0.6723003,0.9127998-1.6431007,0.9127998-2.8066006
			C48.4426994,15.4800997,47.3338013,14.0201998,45.6202011,14.0201998z"/>
		<path d="M51.7812004,14.0183001H49.737999c-0.0214996,0-0.0373993,0.0159998-0.0373993,0.0344v11.7989006
			c0,0.0184994,0.0158997,0.034399,0.0373993,0.034399h2.0432014c0.0227013,0,0.036499-0.0158997,0.036499-0.034399V14.0527
			C51.8176994,14.0342999,51.8039017,14.0183001,51.7812004,14.0183001z"/>
		<path d="M60.707901,16.8889999c0-0.0207005-0.0172005-0.0382996-0.0391998-0.0382996h-3.6466026
			c-3.2650986,0-3.683197,2.4027004-3.683197,4.5081997l0.0029984,1.8223991c0,1.5661011,0.972599,2.7047005,2.3184013,2.7047005
			h1.9850998c0.018898,0,0.0369987-0.0159988,0.0369987-0.034399v-1.2242012c0-0.0201988-0.0181007-0.0352001-0.0369987-0.0352001
			h-1.4202995c-0.3299026-0.0065002-0.7686996-0.1458988-0.7695007-1.2654991v-1.9678001
			c0-1.3085003,0.1264-2.1408005,0.3936005-2.6156006c0.2924004-0.5264988,0.7560997-0.5970001,1.1711998-0.5970001h1.5583
			c0.0081978,0,0.0154991,0.0077,0.0154991,0.017601v7.6877003c0,0.0184002,0.0141983,0.034399,0.0340004,0.034399h2.0426979
			c0.0206032,0,0.0370026-0.0159988,0.0370026-0.034399v-8.9080009V16.8889999L60.707901,16.8889999z"/>
		<path d="M75.4199982,18.9568005l-1.0074005-0.0761013c-0.7527008-0.0632992-1.317894-0.4834995-1.317894-1.7256985
			c0-1.4461002,0.655098-1.8367004,1.5148926-1.8367004h2.7864075c0.0184937,0,0.0369949-0.0176001,0.0369949-0.0369005v-1.2289
			c0-0.0184994-0.0185013-0.0339994-0.0369949-0.0339994h-0.0542068h-0.0016937h-3.0186005
			c-1.9042053,0-3.2591019,1.1166-3.2591019,3.3446989v0.0937004c0,1.7639999,1.0825958,3.0293999,2.6921005,3.1512012
			l1.0095978,0.0781994c0.7583008,0.0585003,1.2301025,0.7376995,1.2301025,1.7768993V22.757
			c0,0.6520004-0.156105,1.8353004-1.5463028,1.8353004h-2.8393021h-0.0562973c-0.0205994,0-0.0353012,0.0154991-0.0353012,0.034399
			v1.2237015c0,0.0197983,0.0147018,0.0352993,0.0353012,0.0352993h3.5889969c1.1131058,0,2.9709015-0.4477005,2.9709015-3.4664001
			c0-1.0869007-0.2555008-1.9505997-0.7536011-2.5713005C76.9263,19.3164005,76.293602,19.0247002,75.4199982,18.9568005z"/>
		<path d="M92.1759033,16.8889999c0-0.0207005-0.0160065-0.0382996-0.0370026-0.0382996h-3.6471024
			c-3.2633972,0-3.6809998,2.4027004-3.6809998,4.5081997v1.8223991c0,1.5661011,0.9750977,2.7047005,2.3171005,2.7047005h1.9885025
			c0.018898,0,0.0335007-0.0159988,0.0335007-0.034399v-1.2242012c0-0.0201988-0.0146027-0.0352001-0.0335007-0.0352001h-1.4216003
			c-0.3290024-0.0065002-0.7677994-0.1458988-0.7677994-1.2654991v-1.9678001c0-1.3085003,0.1225967-2.1408005,0.3913956-2.6156006
			c0.290802-0.5264988,0.759201-0.5970001,1.1716995-0.5970001h1.5596008c0.0056,0,0.0129013,0.0077,0.0129013,0.017601
			l-0.0037994,7.6877003c0,0.0184002,0.0167007,0.034399,0.036499,0.034399h2.0461044
			c0.0214996,0,0.0361938-0.0159988,0.0361938-0.034399L92.1759033,16.8889999z"/>
		<path d="M83.9550018,16.8509007h-2.2117004c-0.0056,0-0.0149994-0.0073013-0.0149994-0.0129013v-0.0086002v-1.4748993
			c0-0.0219002-0.0129013-0.0369997-0.0335999-0.0369997h-2.0461044c-0.018898,0-0.0353012,0.0150995-0.0353012,0.0369997V23.1833
			c0,1.5669003,0.9721069,2.7024002,2.3184052,2.7024002h1.4654999c0.0205994,0,0.0335007-0.0153999,0.0335007-0.0344009v-1.2236996
			c0-0.0205994-0.0129013-0.0352001-0.0335007-0.0352001h-0.9011993c-0.2304993-0.0065002-0.7677002-0.0167999-0.7677002-1.1730003
			v-5.2625999c0-0.0077991,0.0064011-0.0150986,0.0149994-0.0150986c0.6727982,0.0038986,2.2117004,0,2.2117004,0
			c0.0203018,0,0.0362015-0.0150013,0.0362015-0.0361004v-1.2164001
			C83.9912033,16.8694,83.9753036,16.8509007,83.9550018,16.8509007z"/>
		<path d="M98.2322998,16.8509007h-2.2125015c-0.0047989,0-0.0112-0.0073013-0.0112-0.0129013v-0.0086002v-1.4748993
			c0-0.0219002-0.0150986-0.0369997-0.0374985-0.0369997H93.927597c-0.0210953,0-0.0360947,0.0150995-0.0360947,0.0369997V23.1833
			c0,1.5669003,0.9745941,2.7024002,2.3187943,2.7024002h1.4616013c0.023201,0,0.0391006-0.0153999,0.0391006-0.0344009v-1.2236996
			c0-0.0205994-0.0158997-0.0352001-0.0391006-0.0352001h-0.9002991c-0.2240982-0.0065002-0.7630005-0.0167999-0.7651978-1.1730003
			v-5.2625999c0-0.0077991,0.006897-0.0150986,0.0124969-0.0150986c0.678299,0.0038986,2.2134018,0,2.2134018,0
			c0.0214996,0,0.0344009-0.0150013,0.0344009-0.0361004v-1.2164001
			C98.2667007,16.8694,98.2537994,16.8509007,98.2322998,16.8509007z"/>
		<path d="M101.6119995,16.8509007h-2.0429993c-0.0220032,0-0.0350037,0.0184994-0.0350037,0.0382996v8.9620991
			c0,0.019001,0.0130005,0.0344009,0.0350037,0.0344009h2.0429993c0.0210037,0,0.0370026-0.0153999,0.0370026-0.0344009v-8.9620991
			C101.6490021,16.8694,101.6330032,16.8509007,101.6119995,16.8509007z"/>
		<path d="M101.6119995,14.0183001h-2.0429993c-0.0220032,0-0.0350037,0.0159998-0.0350037,0.0344v1.7128
			c0,0.0201998,0.0130005,0.0361996,0.0350037,0.0361996h2.0429993c0.0210037,0,0.0370026-0.0159998,0.0370026-0.0361996v-1.7128
			C101.6490021,14.0342999,101.6330032,14.0183001,101.6119995,14.0183001z"/>
		<path d="M115.7509995,16.8509007h-3.6490021c-0.0179977,0-0.034996,0.0184994-0.034996,0.0382996l-0.0029984,8.9620991
			c0,0.019001,0.0159988,0.0344009,0.0379944,0.0344009h2.0429993c0.0210037,0,0.0360031-0.0153999,0.0360031-0.0344009
			l-0.0019989-7.6918983c0-0.0073013,0.0049973-0.0138016,0.0139999-0.0138016h1.5579987
			c0.4169998,0,0.8810043,0.0667,1.1730042,0.5519009c0.2689972,0.4412994,0.3959961,1.2115993,0.3959961,2.427599
			c0,0.0538006-0.0039978,4.7262001-0.0039978,4.7262001c0,0.019001,0.0189972,0.0344009,0.0339966,0.0344009h2.0449982
			c0.0210037,0,0.0360031-0.0153999,0.0360031-0.0344009v-4.4930992
			C119.4309998,19.2532005,119.0149994,16.8509007,115.7509995,16.8509007z"/>
		<path d="M108.1600037,23.9983006c-0.326004,0.5290985-0.8380051,0.6005001-1.2990036,0.6005001
			c-0.4580002,0-0.9720001-0.0714016-1.2959976-0.6005001c-0.2950058-0.4787006-0.4319992-1.3122997-0.4319992-2.6263008v-0.0112
			c0-1.5552998,0.1929932-2.4384003,0.621994-2.859499c0.2520065-0.2499008,0.5839996-0.3557014,1.1060028-0.3557014
			s0.8519974,0.1058006,1.1080017,0.3557014c0.4290009,0.4210987,0.6230011,1.3066998,0.6209946,2.8706989
			C108.5899963,22.6868992,108.4550018,23.5226002,108.1600037,23.9983006z M106.8610001,16.8509007
			c-3.4120026,0-3.8509979,2.4159985-3.8509979,4.5210991c0,2.1042004,0.4389954,4.521101,3.848999,4.521101
			c3.4169998,0,3.8539963-2.4169006,3.8539963-4.521101C110.7129974,19.2668991,110.276001,16.8509007,106.8610001,16.8509007z"/>
		<path d="M61.8596992,16.8509007c-0.0210991,0-0.0344009,0.0184994-0.0257988,0.0335999l3.0280991,8.8834
			c0.0093994,0.0201988,0.0082016,0.052,0,0.0704994l-1.7033005,4.4001999
			c-0.0077972,0.0207005,0.0008011,0.0366001,0.0219002,0.0366001h1.7790031c0.0185013,0,0.0442963-0.0158997,0.0498962-0.0366001
			l5.3263016-13.3540993c0.0102997-0.0177002-0.0009003-0.0335999-0.0197983-0.0335999H68.3722
			c-0.0179977,0-0.0411987,0.0184994-0.0485992,0.0335999l-2.2564011,5.8381004
			c-0.0094986,0.0210991-0.0214996,0.0192986-0.0279999,0l-1.9850006-5.8381004
			c-0.0056-0.0177002-0.028801-0.0335999-0.0498962-0.0335999H61.8596992L61.8596992,16.8509007z"/>
		<path d="M11.8246002,8.38937v21.5743294l4.8818989,1.5493011V13.4171c0-0.8456001,0.3777008-1.4146004,0.9885006-1.2154999
			c0.7966003,0.2210999,0.9517994,1.0009003,0.9517994,1.8473997v7.2266006
			c3.0432014,1.4701004,5.4386005-0.0009003,5.4386005-3.8794003c0-3.9791002-1.4022999-5.7439003-5.5348988-7.1659002
			C16.9242001,9.6849298,13.9017,8.7730598,11.8246002,8.38937z"/>
		<path d="M17.6313992,28.3616009l7.8528004-2.8001003c0.8908005-0.3188,1.0279999-0.770401,0.3050003-1.0074005
			C25.0648994,24.3188,23.7551003,24.3850994,22.8652,24.7054996l-5.2338009,1.8430996v-2.9329987l0.3011017-0.1015015
			c0,0,1.5131989-0.535099,3.6371994-0.7720985c2.1264992-0.2306004,4.7304993,0.0313988,6.7735996,0.8064995
			c2.3036995,0.7294998,2.5618,1.8008995,1.9773006,2.5382004c-0.5858002,0.7397995-2.0181999,1.2666988-2.0181999,1.2666988
			l-10.6710014,3.8324013V28.3616009L17.6313992,28.3616009z"/>
		<path d="M2.86815,28.0632992c-2.36397-0.6662998-2.758831-2.0508995-1.68179-2.8512993
			c0.9996101-0.7376995,2.6925902-1.2917004,2.6925902-1.2917004L10.8771,21.4323997v2.8346004L5.8411899,26.0709
			c-0.89079,0.3195992-1.0262799,0.7712002-0.3045297,1.0065002C6.2614298,27.3153,7.56987,27.2481995,8.4606705,26.9277
			L10.8771,26.0510998v2.5382004c-0.1543999,0.0270996-0.3233995,0.0538006-0.4804001,0.0786991
			C7.9793501,29.0632992,5.40418,28.8985996,2.86815,28.0632992z"/>
		<path d="M28.7670002,31.4741001c0.3045998,0,0.594099-0.1191998,0.8090992-0.3355999
			c0.2138004-0.2145996,0.3316002-0.5018997,0.3316002-0.8085995c0-0.3019009-0.1177998-0.5875015-0.3316002-0.8048
			c-0.2150002-0.2193012-0.5044994-0.3380013-0.8090992-0.3380013c-0.6317997,0-1.141901,0.5157013-1.141901,1.1428013
			c0,0.3066998,0.1187,0.5939999,0.3341999,0.8085995C28.1742992,31.3549004,28.4594994,31.4741001,28.7670002,31.4741001z
			 M27.8173008,30.3299007c0-0.2529011,0.0971985-0.4916,0.2769985-0.6710014
			c0.1781006-0.1819,0.4176998-0.2796001,0.6727009-0.2796001c0.2542992,0,0.4920998,0.0977001,0.6709995,0.2796001
			c0.1807003,0.1794014,0.2770004,0.4181004,0.2770004,0.6710014c0,0.5268993-0.4265995,0.9505997-0.948,0.9505997
			c-0.2550011,0-0.4946003-0.0976009-0.6727009-0.2786999C27.9144993,30.8232994,27.8173008,30.5846004,27.8173008,30.3299007z"/>
		<path d="M29.3286991,30.8623009c-0.0145988-0.0056-0.0291996-0.0241013-0.0386982-0.0555
			c-0.0021-0.0215015-0.0056-0.0512009-0.0086002-0.0976009l-0.0064011-0.1625996
			c-0.0042992-0.0792007-0.0163994-0.1321011-0.0459995-0.1681995c-0.019001-0.0254002-0.0456009-0.0486012-0.0739994-0.0641003
			c0.0382996-0.0262012,0.0700989-0.0559006,0.0936985-0.0929012c0.0357018-0.0502987,0.0508003-0.1152992,0.0508003-0.1934986
			c0-0.1522999-0.0627995-0.2556-0.1875-0.3132c-0.0646-0.0297012-0.1445999-0.0417004-0.2409-0.0417004h-0.5621986h-0.028801
			v0.0240993v1.2185001v0.0275993h0.028801h0.1634998h0.0287991v-0.0275993v-0.4937992h0.3462009
			c0.0611,0,0.1105995,0.0086994,0.1380997,0.0206985c0.0425987,0.0223999,0.0683994,0.0650005,0.0704994,0.1375999
			l0.0104008,0.2013016c0.0030003,0.0468998,0.0046997,0.0809002,0.0077,0.0998001
			c0.0038986,0.0193996,0.0094986,0.034399,0.0158997,0.0481987l0.0098991,0.0137997h0.0164013H29.3167h0.0284004v-0.0275993
			v-0.0279007v-0.0176983L29.3286991,30.8623009z M29.0771008,30.0445995c0,0.0688-0.0180016,0.1183014-0.0563011,0.1450005
			c-0.039999,0.0261993-0.0963993,0.0400009-0.167799,0.0400009h-0.3518009v-0.3605003h0.375
			c0.0503998,0,0.0911999,0.0065002,0.1226006,0.0233002C29.0499992,29.9181995,29.0771008,29.9675999,29.0771008,30.0445995z"/>
	</g>
</g>
</svg>
