<svg width="54" height="40" viewBox="0 0 54 40" fill="none" xmlns="http://www.w3.org/2000/svg">
<path d="M53.5 0H0.5V40H53.5V0Z" fill="#FFDE2B"/>
<path d="M14.41 25.95H9.82001L6.16998 20.9H4.94V25.95H0.890015V10.78H6.67999C10.02 10.78 12.75 13.05 12.75 15.85C12.75 17.56 11.7 19.08 10.12 20.01L14.41 25.95ZM8.71997 15.84C8.72997 14.44 7.60001 13.3 6.20001 13.29H4.95001V18.36H6.20001C7.59001 18.36 8.71997 17.24 8.71997 15.84Z" fill="black"/>
<path d="M25.19 20C25.21 23.43 22.44 26.22 19.01 26.24C15.58 26.26 12.79 23.49 12.77 20.06C12.75 16.63 15.52 13.84 18.95 13.82H18.96C22.38 13.8 25.17 16.56 25.19 19.99V20ZM18.97 16.75C17.9 16.75 16.99 18.21 16.99 20C16.99 21.79 17.9 23.25 18.97 23.25C20.06 23.25 20.97 21.8 20.97 20C20.97 18.2 20.06 16.75 18.97 16.75Z" fill="black"/>
<path d="M34.69 14.07L30.03 18.73V14.06H25.98V25.94H30.03V21.12L34.9 25.94H39.99L33.81 19.76L38.93 14.64V21.69C38.93 24.03 40.33 26.19 43.88 26.19C45.56 26.19 47.1 25.24 47.85 24.37L49.67 25.94H50.53V14.07H46.5V21.76C46.04 22.55 45.41 23.06 44.43 23.06C43.43 23.06 42.98 22.47 42.98 20.58V14.08H34.69V14.07Z" fill="black"/>
<path d="M52.3 15.48C51.86 15.48 51.5 15.12 51.5 14.68C51.5 14.24 51.86 13.88 52.3 13.88C52.74 13.88 53.1 14.24 53.1 14.68C53.1 15.12 52.74 15.48 52.3 15.48ZM52.3 13.96C51.9 13.96 51.58 14.28 51.58 14.68C51.58 15.08 51.9 15.4 52.3 15.4C52.7 15.4 53.02 15.08 53.02 14.68C53.02 14.29 52.7 13.96 52.3 13.96Z" fill="black"/>
<path d="M51.96 14.28H52.32C52.41 14.27 52.49 14.3 52.55 14.36C52.59 14.41 52.62 14.47 52.62 14.53C52.62 14.65 52.54 14.75 52.43 14.78L52.65 15.09H52.48L52.28 14.81H52.1V15.09H51.96V14.28ZM52.31 14.68C52.42 14.68 52.48 14.63 52.48 14.54C52.48 14.45 52.42 14.41 52.31 14.41H52.1V14.68H52.31Z" fill="black"/>
</svg>
