<svg width="68" height="40" viewBox="0 0 68 40" fill="none" xmlns="http://www.w3.org/2000/svg">
<path d="M67.5 0H0.5V40H67.5V0Z" fill="#FFDE2B"/>
<path d="M34.74 25.97H32.75L29.34 21.27L25.92 25.97H23.9301L28.33 19.9L24.27 14.31H26.26L29.34 18.54L32.41 14.31H34.4L30.34 19.9L34.74 25.97ZM45.03 22.65C45.03 23.67 44.69 24.49 44.02 25.08C43.35 25.66 42.37 25.97 41.13 25.97H35.6801V20.78H33.08L34.16 19.29H35.6801V14.32H40.92C42.1 14.32 43 14.6 43.63 15.16C44.26 15.72 44.5699 16.46 44.5699 17.36C44.5699 18.48 44.0601 19.33 43.0601 19.88C43.7001 20.13 44.2 20.49 44.53 20.97C44.86 21.46 45.03 22.02 45.03 22.65ZM37.4399 19.29H40.78C41.45 19.29 41.97 19.14 42.3 18.84C42.63 18.54 42.8101 18.09 42.8101 17.5C42.8101 16.98 42.63 16.57 42.28 16.29C41.93 16 41.42 15.85 40.78 15.85H37.4399V19.29ZM43.24 22.62C43.24 22.01 43.0499 21.54 42.6899 21.24C42.3299 20.94 41.76 20.78 41.03 20.78H37.45V24.43H41.03C41.74 24.43 42.3 24.27 42.67 23.96C43.04 23.66 43.24 23.2 43.24 22.62ZM57 20.14C57 21.04 56.87 21.86 56.61 22.59C56.36 23.32 55.9599 23.97 55.4399 24.54C54.9099 25.1 54.31 25.52 53.62 25.81C52.94 26.09 52.1601 26.23 51.3101 26.23C50.4501 26.23 49.67 26.08 48.98 25.81C48.3 25.53 47.6901 25.11 47.1801 24.54C46.6501 23.98 46.26 23.33 46 22.6C45.74 21.87 45.61 21.04 45.61 20.14C45.61 19.24 45.75 18.41 46 17.68C46.26 16.95 46.6501 16.29 47.1801 15.72C47.6901 15.16 48.3 14.75 48.98 14.46C49.66 14.19 50.4501 14.04 51.3101 14.04C52.1601 14.04 52.94 14.18 53.62 14.46C54.3 14.73 54.9199 15.16 55.4399 15.72C55.9599 16.28 56.35 16.95 56.61 17.68C56.87 18.42 57 19.25 57 20.14ZM47.47 20.14C47.47 21.51 47.82 22.61 48.52 23.41C49.21 24.22 50.1499 24.63 51.3199 24.63C52.4899 24.63 53.42 24.22 54.12 23.41C54.81 22.62 55.16 21.52 55.16 20.14C55.16 18.76 54.81 17.66 54.12 16.86C53.42 16.06 52.4799 15.66 51.3199 15.66C50.1699 15.66 49.23 16.07 48.52 16.86C47.83 17.68 47.47 18.79 47.47 20.14ZM62.63 19.91L66.6899 14.32H64.7L61.63 18.55L58.5601 14.32H56.5699L60.63 19.91L56.23 25.98H58.22L61.64 21.28L65.0601 25.98H67.03L62.63 19.91Z" fill="black"/>
<path d="M10.6899 18.08C10.6999 18.08 10.71 18.09 10.72 18.1C13.62 20.3 18.5799 25.76 17.0699 27.3C15.3699 28.79 13.1399 29.7 10.6899 29.7C8.24994 29.7 6.02006 28.79 4.31006 27.3C2.80006 25.75 7.76003 20.3 10.66 18.1C10.67 18.09 10.6799 18.08 10.6899 18.08ZM15.74 11.73C14.25 10.84 12.6399 10.31 10.6899 10.31C8.73994 10.31 7.13002 10.85 5.65002 11.73C5.63002 11.74 5.62 11.76 5.63 11.78C5.64001 11.8 5.66005 11.8 5.68005 11.8C7.56005 11.39 10.4101 13.02 10.6801 13.18C10.6901 13.18 10.69 13.19 10.7 13.19C10.71 13.19 10.71 13.19 10.72 13.18C10.99 13.01 13.85 11.4 15.72 11.8C15.74 11.8 15.76 11.8 15.77 11.78C15.76 11.76 15.76 11.74 15.74 11.73ZM3.91003 13.09C3.89003 13.1 3.88 13.11 3.87 13.12C2.1 14.87 1 17.31 1 20C1 22.21 1.73999 24.25 2.98999 25.87C2.99999 25.89 3.03004 25.9 3.04004 25.89C3.06004 25.88 3.06005 25.86 3.05005 25.84C2.31005 23.55 6.09004 18.02 8.04004 15.69C8.05004 15.68 8.05005 15.67 8.05005 15.66C8.05005 15.65 8.04003 15.64 8.03003 15.63C5.07003 12.69 4.07003 13 3.91003 13.09ZM13.36 15.63C13.35 15.64 13.34 15.65 13.34 15.66C13.34 15.67 13.35 15.68 13.35 15.69C15.3 18.01 19.08 23.55 18.34 25.84C18.33 25.86 18.33 25.88 18.35 25.89C18.37 25.9 18.39 25.89 18.4 25.87C19.65 24.24 20.39 22.21 20.39 20C20.39 17.31 19.29 14.88 17.53 13.12C17.52 13.11 17.5 13.09 17.49 13.09C17.31 13 16.31 12.69 13.36 15.63Z" fill="black"/>
</svg>
